<?xml version="1.0" encoding="UTF-8"?>
<svg id="svg2" xmlns="http://www.w3.org/2000/svg" xmlns:svg="http://www.w3.org/2000/svg" xmlns:sodipodi="http://inkscape.sourceforge.net/DTD/sodipodi-0.dtd" xmlns:rdf="http://www.w3.org/1999/02/22-rdf-syntax-ns#" xmlns:inkscape="http://www.inkscape.org/namespaces/inkscape" xmlns:dc="http://purl.org/dc/elements/1.1/" xmlns:cc="http://web.resource.org/cc/" version="1.1" viewBox="0 0 500 200">
  <g id="g2303">
    <path id="path1948" d="M76.4,41.9c-4.8,0-9.4.4-13.4,1.1-11.9,2.1-14,6.5-14,14.6v10.7h28.1v3.6h-38.6c-8.2,0-15.3,4.9-17.5,14.2-2.6,10.7-2.7,17.4,0,28.5,2,8.3,6.8,14.2,14.9,14.2h9.6v-12.8c0-9.3,8-17.4,17.5-17.4h28c7.8,0,14-6.4,14-14.3v-26.7c0-7.6-6.4-13.3-14-14.6-4.8-.8-9.8-1.2-14.6-1.1ZM61.3,50.5c2.9,0,5.3,2.4,5.3,5.4s-2.4,5.3-5.3,5.3-5.3-2.4-5.3-5.3,2.4-5.4,5.3-5.4Z" fill="#006eb6" stroke-width="0"/>
    <path id="path1950" d="M108.6,71.9v12.5c0,9.7-8.2,17.8-17.5,17.8h-28c-7.7,0-14,6.6-14,14.3v26.7c0,7.6,6.6,12.1,14,14.3,8.9,2.6,17.4,3.1,28,0,7.1-2,14-6.2,14-14.3v-10.7h-28v-3.6h42.1c8.2,0,11.2-5.7,14-14.2,2.9-8.8,2.8-17.2,0-28.5-2-8.1-5.9-14.2-14-14.2h-10.5ZM92.8,139.6c2.9,0,5.3,2.4,5.3,5.3s-2.4,5.4-5.3,5.4-5.3-2.4-5.3-5.4,2.4-5.3,5.3-5.3Z" fill="#006eb6" stroke-width="0"/>
  </g>
  <path d="M135.8,45.4l1.1.4c.6.2.6,1.2,0,1.4l-1.1.4c-3.3,1.2-5.8,3.8-7.1,7.1l-.4,1.1c-.2.6-1.2.6-1.4,0l-.4-1.1c-1.2-3.3-3.8-5.8-7.1-7.1l-1.1-.4c-.6-.2-.6-1.2,0-1.4l1.1-.4c3.3-1.2,5.8-3.8,7.1-7.1l.4-1.1c.2-.6,1.2-.6,1.4,0l.4,1.1c1.2,3.3,3.8,5.8,7.1,7.1Z" fill="#000" stroke-width="0"/>
  <path d="M143.5,58.3h.2c.5.2.5.9,0,1.1h-.2c-2,.8-3.5,2.3-4.2,4.3v.2c-.2.5-.9.5-1.1,0v-.2c-.8-2-2.3-3.5-4.3-4.2h-.2c-.5-.2-.5-.9,0-1.1h.2c2-.8,3.5-2.3,4.2-4.3v-.2c.2-.5.9-.5,1.1,0v.2c.8,2,2.3,3.5,4.3,4.2Z" fill="#000" stroke-width="0"/>
  <path d="M139,41.2h-.1c-.2.1-.2.5,0,.5h.1c1,.4,1.8,1.2,2.1,2.2h0c0,.3.4.3.5.1h0c.4-1.1,1.1-1.9,2.1-2.2h.1c.2-.1.2-.5,0-.5h-.1c-1-.4-1.8-1.2-2.1-2.2h0c0-.3-.4-.3-.5-.1h0c-.4,1.1-1.1,1.9-2.1,2.2Z" fill="#000" stroke-width="0"/>
  <g>
    <g>
      <path d="M161.6,121.2h4.2l.4,3.4h.2c2.7-2.2,6.1-4.1,9.5-4.1,7.7,0,11.8,5.9,11.8,15s-6.1,15.9-12.9,15.9-5.5-1.2-8.3-3.4v5.1c.1,0,.1,10,.1,10h-5v-41.9ZM182.5,135.5c0-6.5-2.2-10.9-7.9-10.9s-5.1,1.4-8,4v15.5c2.7,2.2,5.3,3.1,7.3,3.1,4.9,0,8.6-4.4,8.6-11.7Z" fill="#000" stroke-width="0"/>
      <path d="M192.4,162.8l1-4c.6.2,1.5.4,2.3.4,3.4,0,5.5-2.7,6.7-6.3l.7-2.2-12-29.6h5.2l6.1,16.3c.9,2.6,1.9,5.6,2.9,8.3h.2c.8-2.7,1.7-5.7,2.5-8.3l5.3-16.3h4.9l-11.2,31.9c-2.1,5.9-5.2,10.3-11.2,10.3s-2.5-.2-3.5-.6Z" fill="#000" stroke-width="0"/>
      <path d="M225,141.5v-16.3h-4.4v-3.8l4.7-.3.6-8.3h4.2v8.3h8.1v4.1h-8.1v16.4c0,3.6,1.2,5.7,4.6,5.7s2.4-.4,3.4-.8l1,3.8c-1.7.6-3.7,1.1-5.5,1.1-6.3,0-8.5-4-8.5-9.8Z" fill="#000" stroke-width="0"/>
      <path d="M244.8,107.4h5v11.8l-.2,6.1c2.8-2.7,5.8-4.9,9.9-4.9,6.3,0,9.1,4,9.1,11.5v18.7h-5v-18c0-5.5-1.7-7.8-5.6-7.8s-5.2,1.5-8.2,4.5v21.4h-5v-43.2Z" fill="#000" stroke-width="0"/>
      <path d="M276,136c0-9.8,6.5-15.5,13.8-15.5s13.8,5.7,13.8,15.5-6.5,15.4-13.8,15.4-13.8-5.7-13.8-15.4ZM298.4,136c0-6.8-3.5-11.4-8.6-11.4s-8.6,4.6-8.6,11.4,3.5,11.3,8.6,11.3,8.6-4.5,8.6-11.3Z" fill="#000" stroke-width="0"/>
      <path d="M311.5,121.2h4.2l.4,4.3h.2c2.8-2.8,5.9-5,10-5,6.3,0,9.1,4,9.1,11.5v18.7h-5v-18c0-5.5-1.7-7.8-5.6-7.8s-5.2,1.5-8.2,4.5v21.4h-5v-29.5Z" fill="#000" stroke-width="0"/>
      <path d="M358.2,141.5v-16.3h-4.4v-3.8l4.7-.3.6-8.3h4.2v8.3h8.1v4.1h-8.1v16.4c0,3.6,1.2,5.7,4.6,5.7s2.4-.4,3.4-.8l1,3.8c-1.7.6-3.7,1.1-5.5,1.1-6.3,0-8.5-4-8.5-9.8Z" fill="#000" stroke-width="0"/>
      <path d="M377.7,139.9v-18.7h5v18c0,5.5,1.7,7.8,5.6,7.8s5.2-1.5,8-5v-20.9h5v29.5h-4.2l-.4-4.6h-.2c-2.8,3.2-5.7,5.3-9.8,5.3-6.3,0-9.1-4-9.1-11.5Z" fill="#000" stroke-width="0"/>
      <path d="M412.3,141.5v-16.3h-4.4v-3.8l4.7-.3.6-8.3h4.2v8.3h8.1v4.1h-8.1v16.4c0,3.6,1.2,5.7,4.6,5.7s2.4-.4,3.4-.8l1,3.8c-1.7.6-3.7,1.1-5.5,1.1-6.3,0-8.5-4-8.5-9.8Z" fill="#000" stroke-width="0"/>
      <path d="M429.1,136c0-9.8,6.5-15.5,13.8-15.5s13.8,5.7,13.8,15.5-6.5,15.4-13.8,15.4-13.8-5.7-13.8-15.4ZM451.6,136c0-6.8-3.5-11.4-8.6-11.4s-8.6,4.6-8.6,11.4,3.5,11.3,8.6,11.3,8.6-4.5,8.6-11.3Z" fill="#000" stroke-width="0"/>
      <path d="M464.6,121.2h4.2l.4,5.4h.2c2.1-3.7,5.1-6.1,8.5-6.1s2.2.2,3.2.6l-.9,4.4c-1-.3-1.7-.5-2.9-.5-2.5,0-5.5,1.8-7.5,6.8v18.9h-5v-29.5Z" fill="#000" stroke-width="0"/>
    </g>
    <g>
      <path d="M161.6,80.9v-44.1h23.5c3.9,0,7,.6,9.5,1.9,2,1,3.6,2.3,4.7,3.9,1.1,1.6,1.7,3.4,1.7,5.4,0,4.7-3.1,8.1-9.2,10.2,2.2.7,3.9,1.3,5.2,2.1,1.1.6,2,1.3,2.8,2.2.8.9,1.3,1.9,1.7,3,.4,1.1.6,2.3.6,3.5,0,2.9-.8,5.3-2.5,7.3-1.6,2-3.9,3.3-6.8,3.9-2.2.5-5.3.8-9.2.8h-22ZM174.6,54.2h6.9c2.3,0,3.9-.4,4.9-1.1s1.5-1.9,1.5-3.6c0-2.9-2.1-4.4-6.4-4.4h-6.9v9ZM174.6,72.5h5.1c3,0,5.1-.2,6.1-.6,1.7-.6,2.6-2,2.6-4s-.9-3.4-2.6-4.2c-1.2-.6-3.2-.9-5.8-.9h-5.4v9.7Z" fill="#000" stroke-width="0"/>
      <path d="M217.6,80.9v-18.7l-15.7-25.4h14.6l8.8,15,8.9-15h11.5l-15.2,24.3v19.8h-12.9Z" fill="#000" stroke-width="0"/>
      <path d="M249.3,36.8h12.9v25.9c0,2,0,3.4.3,4.4.2.9.5,1.8,1,2.6.6.9,1.4,1.6,2.6,2.1,1.1.5,2.3.8,3.7.8s2.9-.3,4.2-1c1.3-.7,2.1-1.6,2.6-2.7.5-1.2.8-3.3.8-6.1v-25.9h10.2v27.8c0,2.7-.2,4.9-.7,6.5s-1.4,3.2-2.7,4.7c-1.1,1.2-2.4,2.3-4,3.2-1.6.9-3.4,1.6-5.4,2s-4.1.7-6.5.7-3.7-.1-5.4-.4c-1.7-.3-3.2-.7-4.6-1.3-1.4-.6-2.6-1.3-3.7-2.1s-2-1.7-2.6-2.8c-1-1.4-1.7-2.9-2-4.4-.4-1.5-.6-3.6-.6-6.1v-27.8Z" fill="#000" stroke-width="0"/>
      <path d="M291.7,67.8v-8.6c2.5.3,5.4.5,8.8.5s6.1-.2,8.7-.5v8.6c-3.9-.3-6.9-.5-9.1-.5s-5,.2-8.4.5Z" fill="#000" stroke-width="0"/>
      <path d="M313.6,80.9v-44.1h12.9v44.1h-12.9Z" fill="#000" stroke-width="0"/>
      <path d="M354.6,80.9v-3.7c-2.7,2.9-5.8,4.4-9.3,4.4s-4.7-.6-6.5-1.9-3.3-3-4.3-5.4c-1-2.3-1.5-5.1-1.5-8.3,0-5.2,1.1-9.2,3.4-12.2,1.2-1.5,2.6-2.7,4.3-3.6s3.4-1.3,5.2-1.3,3,.3,4.4.9c1.3.6,2.8,1.6,4.4,3v-16.3h11v44.3h-11ZM354.6,58c-1.4-1.8-3-2.6-4.9-2.6s-2.9.8-3.9,2.3c-.9,1.6-1.4,3.7-1.4,6.5,0,7.3,1.7,11,5.2,11s3.2-.9,5-2.8v-14.4Z" fill="#000" stroke-width="0"/>
      <path d="M402.4,59.1v15.5c0,1.4,0,2.5.1,3.2s.3,1.8.7,3.1h-11c-.2-1-.3-2.1-.4-3.3-3.5,2.6-7.1,4-10.6,4s-5.2-.8-7.1-2.4c-1.8-1.6-2.7-3.6-2.7-6.1,0-3.8,1.7-6.6,5.2-8.6,3.5-2,8.6-3,15.2-3v-2.4c0-1.2-.4-2.2-1.2-2.9-.8-.7-1.9-1-3.4-1s-2.6.3-3.3.9c-.8.6-1.3,1.6-1.6,3l-9.3-2.1c.5-1.7,1.5-3.1,2.8-4.3,1.4-1.2,3.1-2.1,5.1-2.7s4.4-.9,7.1-.9c4.9,0,8.5.8,10.9,2.4,2.3,1.6,3.5,4.2,3.5,7.7ZM391.9,66.4h-.9c-2.5,0-4.5.5-6.1,1.5-1.6,1-2.4,2.3-2.4,3.8s.4,2,1.1,2.8c.7.8,1.7,1.1,2.8,1.1,1.6,0,3.4-.7,5.5-2.1v-7.2Z" fill="#000" stroke-width="0"/>
      <path d="M410.2,80.9v-44.3h11v18.6c3.4-4.2,7-6.2,11-6.2s2.8.3,4,.9,2.2,1.4,3,2.4c1.2,1.6,1.8,3.8,1.8,6.5v22.1h-11v-19.4c0-3.5-1.2-5.2-3.5-5.2s-3.8,1.1-5.3,3.4v21.2h-11Z" fill="#000" stroke-width="0"/>
      <path d="M463,49c3.2,0,6.1.7,8.6,2,2.5,1.4,4.4,3.3,5.8,5.7s2.1,5.3,2.1,8.5-.4,4.6-1.2,6.6c-.8,2-1.9,3.7-3.4,5.2s-3.2,2.6-5.2,3.3-4.3,1.2-6.7,1.2-6.1-.7-8.6-2-4.4-3.3-5.8-5.8-2.1-5.3-2.1-8.5.7-6,2.1-8.4,3.3-4.4,5.8-5.8,5.3-2,8.5-2ZM463,55.7c-3.3,0-5,3.3-5,9.9s1.7,9.2,5,9.2,4.7-3.3,4.7-9.8-1.6-9.3-4.8-9.3Z" fill="#000" stroke-width="0"/>
    </g>
    <line x1="161.2" y1="96.7" x2="479" y2="96.7" fill="none" stroke="#000" stroke-miterlimit="10" stroke-width="2"/>
  </g>
</svg>